<svg width="446" height="229" viewBox="0 0 446 229" fill="none" xmlns="http://www.w3.org/2000/svg">
<path d="M109.091 0L0 139.259L61.4709 229V172.692L40.9091 139.259L109.091 32.7143V0Z" fill="#D9D9D9"/>
<path d="M109.091 0L0 139.259L61.4709 229V172.692L40.9091 139.259L109.091 32.7143V0Z" fill="url(#paint0_linear_12_34)" fill-opacity="0.96"/>
<path d="M145.091 229L255.273 89.7412L193.187 0V56.3082L213.955 89.7412L145.091 197.649V229Z" fill="#D9D9D9"/>
<path d="M145.091 229L255.273 89.7412L193.187 0V56.3082L213.955 89.7412L145.091 197.649V229Z" fill="url(#paint1_linear_12_34)" fill-opacity="0.96"/>
<path d="M74.1818 229L159.422 0L174.545 32.7143L112.323 197.049L74.1818 229Z" fill="#D9D9D9"/>
<path d="M74.1818 229L159.422 0L174.545 32.7143L112.323 197.049L74.1818 229Z" fill="url(#paint2_linear_12_34)" fill-opacity="0.96"/>
<path d="M240.125 179.094C236.688 179.094 233.969 180.156 231.969 182.281C230.031 184.406 229.062 187.812 229.062 192.5C229.062 194.312 229.312 196.125 229.812 197.938C230.312 199.688 231.031 201.281 231.969 202.719C232.906 204.156 234.031 205.344 235.344 206.281C236.656 207.156 238.125 207.594 239.75 207.594C241.438 207.594 242.969 207.188 244.344 206.375C245.719 205.562 246.875 204.531 247.812 203.281C248.75 201.969 249.469 200.531 249.969 198.969C250.531 197.344 250.812 195.781 250.812 194.281C250.812 188.781 249.812 184.875 247.812 182.562C245.875 180.25 243.312 179.094 240.125 179.094ZM239.562 172.719C242.688 172.719 245.344 173.281 247.531 174.406C249.719 175.531 251.5 177.094 252.875 179.094C254.25 181.031 255.25 183.312 255.875 185.938C256.5 188.5 256.812 191.281 256.812 194.281C256.688 197.656 256.125 200.594 255.125 203.094C254.188 205.531 252.938 207.562 251.375 209.188C249.812 210.812 248.031 212 246.031 212.75C244.094 213.562 242.062 213.969 239.938 213.969C237.125 213.969 234.656 213.406 232.531 212.281C230.469 211.156 228.719 209.656 227.281 207.781C225.906 205.844 224.844 203.656 224.094 201.219C223.406 198.719 223.062 196.094 223.062 193.344C223.062 190.406 223.438 187.688 224.188 185.188C225 182.625 226.094 180.438 227.469 178.625C228.906 176.75 230.625 175.312 232.625 174.312C234.688 173.25 237 172.719 239.562 172.719ZM282.388 181.531H264.2V211.531L259.513 212.094V171.781L264.013 170.844V175.531L285.763 174.219L288.575 179.844L291.388 210.406L285.388 212.094L282.388 181.531ZM325.4 184.344L331.4 209.844L325.775 211.906L322.4 195.969C321.963 197.719 321.275 199.531 320.338 201.406C319.463 203.281 318.338 205 316.963 206.562C315.65 208.062 314.056 209.312 312.181 210.312C310.369 211.25 308.306 211.719 305.994 211.719C301.869 211.719 298.713 210.406 296.525 207.781C294.4 205.094 293.338 201.406 293.338 196.719C293.338 194.031 293.744 191.25 294.556 188.375C295.369 185.438 296.588 182.781 298.213 180.406C299.838 178.031 301.869 176.062 304.306 174.5C306.806 172.938 309.713 172.156 313.025 172.156C314.963 172.156 316.65 172.594 318.088 173.469C319.588 174.281 320.838 175.312 321.838 176.562C322.838 177.812 323.619 179.156 324.181 180.594C324.744 181.969 325.15 183.219 325.4 184.344ZM313.963 178.906C313.525 178.781 313.088 178.688 312.65 178.625C312.275 178.562 311.869 178.531 311.431 178.531C309.494 178.531 307.744 179.125 306.181 180.312C304.681 181.438 303.4 182.875 302.338 184.625C301.338 186.375 300.556 188.281 299.994 190.344C299.494 192.406 299.244 194.312 299.244 196.062C299.244 198.812 299.838 201.031 301.025 202.719C302.213 204.406 304.088 205.25 306.65 205.25C308.4 205.25 310.025 204.688 311.525 203.562C313.025 202.375 314.306 200.906 315.369 199.156C316.431 197.406 317.244 195.5 317.806 193.438C318.431 191.312 318.744 189.344 318.744 187.531C318.744 185.531 318.338 183.781 317.525 182.281C316.775 180.719 315.588 179.594 313.963 178.906ZM338.225 214.156L335.037 172.906L340.85 172.156L342.162 190.344L362.225 176.844L364.85 182.094L343.1 197.844V213.594L338.225 214.156ZM396.05 177.781L394.363 183.781C392.55 182.156 390.613 180.969 388.55 180.219C386.488 179.406 384.456 179 382.456 179C380.769 179 379.144 179.312 377.581 179.938C376.081 180.5 374.769 181.375 373.644 182.562C372.519 183.75 371.613 185.219 370.925 186.969C370.3 188.719 369.988 190.719 369.988 192.969C369.988 195.656 370.331 197.906 371.019 199.719C371.769 201.531 372.738 203 373.925 204.125C375.113 205.25 376.456 206.062 377.956 206.562C379.519 207.062 381.113 207.312 382.738 207.312C384.175 207.25 385.581 206.969 386.956 206.469C388.394 205.906 389.675 205.156 390.8 204.219C391.925 203.219 392.863 202.062 393.613 200.75C394.363 199.375 394.8 197.844 394.925 196.156L400.175 198.781C400.05 201.281 399.456 203.469 398.394 205.344C397.394 207.219 396.081 208.781 394.456 210.031C392.894 211.281 391.081 212.219 389.019 212.844C386.956 213.469 384.831 213.781 382.644 213.781C380.331 213.781 378.05 213.344 375.8 212.469C373.55 211.656 371.55 210.406 369.8 208.719C368.05 207.031 366.644 204.906 365.581 202.344C364.519 199.719 363.988 196.656 363.988 193.156C363.988 190.219 364.425 187.531 365.3 185.094C366.175 182.594 367.394 180.469 368.956 178.719C370.519 176.906 372.363 175.5 374.488 174.5C376.675 173.5 379.05 173 381.613 173C383.8 173 386.081 173.406 388.456 174.219C390.894 174.969 393.425 176.156 396.05 177.781ZM425.938 181.906H408.125V212.094L402.312 212.656V153.594H407.938V175.906H427.25L431.562 177.969L435.312 212.094L429.312 212.469L425.938 181.906Z" fill="url(#paint3_linear_12_34)"/>
<defs>
<linearGradient id="paint0_linear_12_34" x1="92.2063" y1="-159.879" x2="92.2063" y2="228.12" gradientUnits="userSpaceOnUse">
<stop stop-color="#E97B0C"/>
<stop offset="0.865238" stop-color="#870CA6"/>
</linearGradient>
<linearGradient id="paint1_linear_12_34" x1="162.144" y1="388.879" x2="162.144" y2="0.879745" gradientUnits="userSpaceOnUse">
<stop stop-color="#E97B0C"/>
<stop offset="0.865238" stop-color="#870CA6"/>
</linearGradient>
<linearGradient id="paint2_linear_12_34" x1="144.198" y1="2.72619" x2="144.198" y2="233.714" gradientUnits="userSpaceOnUse">
<stop stop-color="#E97B0C"/>
<stop offset="0.865238" stop-color="#870CA6"/>
</linearGradient>
<linearGradient id="paint3_linear_12_34" x1="221" y1="176" x2="446" y2="176" gradientUnits="userSpaceOnUse">
<stop offset="0.202336" stop-color="#290C63" stop-opacity="0.96"/>
<stop offset="0.52698" stop-color="#962253" stop-opacity="0.98"/>
<stop offset="0.923471" stop-color="#6F0A2C"/>
</linearGradient>
</defs>
</svg>
